<svg xmlns="http://www.w3.org/2000/svg" viewBox="0 0 673 673"><path fill="#fffeca" d="M0 0h673v673H0z"/><path d="M48 126.8c-13.6 76.7 12.5 185.2 73.4 291 61.2 105.8 142 182.5 215.3 209.7v-582c-122.3 0-229.6 31.7-289.3 81.2z" fill="#070de9"/><path d="M551.2 417.7c61.2-105.7 87-214.2 74-291-59.6-49-166.2-81.2-289-81.2v582c73-27.2 154.2-103.9 215.4-209.7z" fill="#e9d100"/><path d="M481 140.8a401.3 401.3 0 00-54.5-11.3 195.7 195.7 0 01-1 25c-1.6 18.8-3.9 38.8-6.5 58.5a149 149 0 0132 14 165.6 165.6 0 01-5.6 40.8 258.4 258.4 0 01-30.2 71.7 240.8 240.8 0 01-46 62 194.1 194.1 0 01-33 25 166.3 166.3 0 01-32.5-25 266.5 266.5 0 01-47.2-62 283.6 283.6 0 01-30.2-71.7 150.2 150.2 0 01-4.7-40.8 124 124 0 0131.7-14q-4-29.2-6.4-58.6c0-9-.8-17.4-1.2-25.3-18.9 3.8-37 7.6-54 12a283.5 283.5 0 00-70.7 29.6 308 308 0 0010 76.3 525.4 525.4 0 0056 134.5A542.5 542.5 0 00275.4 497 313.2 313.2 0 00336 544a293.9 293.9 0 0061.2-46.8 559.4 559.4 0 0088.4-115.6 518.8 518.8 0 0056-134.5 277.5 277.5 0 0010-76.3 301.2 301.2 0 00-70.6-29.5z" fill="#fff"/></svg>
